<svg xmlns="http://www.w3.org/2000/svg" viewBox="0 0 64 64">
  <defs>
    <radialGradient id="g" cx="35%" cy="30%" r="85%">
      <stop offset="0%" stop-color="#1c3a28"/>
      <stop offset="55%" stop-color="#0d1626"/>
      <stop offset="100%" stop-color="#060a14"/>
    </radialGradient>
    <linearGradient id="hoja" x1="0" y1="0" x2="1" y2="1">
      <stop offset="0%" stop-color="#6aa06f"/>
      <stop offset="55%" stop-color="#4a7c59"/>
      <stop offset="100%" stop-color="#b8935a"/>
    </linearGradient>
  </defs>

  <rect width="64" height="64" rx="15" fill="url(#g)"/>

  <circle cx="32" cy="32" r="27" fill="none" stroke="rgba(106,160,111,0.35)" stroke-width="1"/>
  <circle cx="32" cy="32" r="22" fill="none" stroke="rgba(184,147,90,0.2)" stroke-width="0.75" stroke-dasharray="3 4"/>

  <path d="M32 9 C 42 16, 45 29, 32 53 C 19 29, 22 16, 32 9 Z"
        fill="none" stroke="url(#hoja)" stroke-width="2.2" stroke-linecap="round"/>
  <path d="M32 13 C 32 27 32 39 32 49" stroke="rgba(215,228,201,0.5)" stroke-width="1" fill="none"/>
  <path d="M33.6 21 C 37 22.5 39.5 25 41 28" stroke="rgba(215,228,201,0.35)" stroke-width="1" fill="none"/>

  <circle cx="32" cy="17" r="2.4" fill="#e3c896"/>
  <circle cx="25" cy="31" r="2" fill="#d7e4c9"/>
  <circle cx="39" cy="36" r="2" fill="#d7e4c9"/>
  <circle cx="32" cy="45" r="2.4" fill="#6aa06f"/>

  <circle cx="32" cy="9" r="1.2" fill="#b8935a"/>
  <circle cx="32" cy="55" r="0" fill="none"/>
</svg>